<?xml version="1.0" encoding="UTF-8"?>
<svg id="Layer_2" data-name="Layer 2" xmlns="http://www.w3.org/2000/svg" xmlns:xlink="http://www.w3.org/1999/xlink" viewBox="0 0 301.82 62.52">
  <defs>
    <style>
      .cls-1 {
        fill: url(#linear-gradient);
      }

      .cls-1, .cls-2 {
        stroke-width: 0px;
      }

      .cls-2 {
        fill: #4d4d4f;
      }
    </style>
    <linearGradient id="linear-gradient" x1="11.06" y1="55.16" x2="58.93" y2="7.29" gradientUnits="userSpaceOnUse">
      <stop offset=".08" stop-color="#c85c1a"/>
      <stop offset=".44" stop-color="#f37021"/>
      <stop offset=".92" stop-color="#fdb913"/>
    </linearGradient>
  </defs>
  <g id="Layer_1-2" data-name="Layer 1">
    <g>
      <g>
        <path class="cls-2" d="m95.41,50.23h-10.06V16.07h10.37c6.53,0,9.54,4.35,9.54,8.4,0,3.16-1.5,5.96-4.35,7.26v.05c3.58.78,6.53,4.04,6.53,8.29,0,4.77-3.26,10.16-12.03,10.16Zm-4.61-29.44v9.69h3.89c2.54,0,5.03-1.87,5.03-4.98,0-2.85-1.71-4.72-5.44-4.72h-3.47Zm4.61,14.36h-4.61v10.42h4.35c4.41,0,6.64-2.18,6.64-5.44,0-2.9-2.38-4.98-6.38-4.98Z"/>
        <path class="cls-2" d="m118.19,18.09c0,1.81-1.51,3.37-3.42,3.37s-3.47-1.5-3.47-3.37,1.51-3.37,3.47-3.37,3.42,1.45,3.42,3.37Zm-6.12,32.14v-24.52h5.39v24.52h-5.39Z"/>
        <path class="cls-2" d="m142.38,28.57c2.18,2.23,3.37,5.55,3.37,9.33s-1.25,7.21-3.47,9.49c-2.13,2.13-5.03,3.37-8.5,3.37s-6.17-1.04-8.19-3.01c-2.38-2.28-3.68-5.75-3.68-9.69s1.3-7.26,3.52-9.54c2.07-2.18,4.97-3.42,8.35-3.42,3.58,0,6.53,1.24,8.61,3.47Zm-14.98,9.38c0,5.08,2.44,8.5,6.43,8.5s6.38-3.53,6.38-8.5-2.38-8.5-6.48-8.5-6.32,3.47-6.32,8.5Z"/>
        <path class="cls-2" d="m159.88,50.23h-9.18V16.07h9.38c12.6,0,18.82,6.95,18.82,16.74s-6.69,17.42-19.02,17.42Zm.26-29.44h-3.99v24.78h3.99c9.49,0,13.01-5.96,13.01-12.65s-4.2-12.13-13.01-12.13Z"/>
        <path class="cls-2" d="m197.81,50.23l-1.04-2.28c-1.56,1.45-3.83,2.8-7.26,2.8-4.3,0-7.83-2.95-7.83-7.72,0-5.03,3.78-7.83,10.16-8.09l4.56-.16v-.73c0-3.42-2.18-4.67-4.93-4.67s-4.87.98-6.38,1.97l-1.81-3.47c3.16-2.18,6.06-2.8,9.28-2.8,5.6,0,9.28,2.33,9.28,8.71v8.97c0,4.67.1,6.48.47,7.46h-4.51Zm-1.45-11.46l-3.99.16c-3.68.1-5.29,1.4-5.29,3.68s1.45,3.78,4.25,3.78c2.54,0,4.15-1.14,5.03-1.97v-5.65Z"/>
        <path class="cls-2" d="m214.63,50.75c-4.04,0-5.75-2.33-5.75-5.55v-15.29h-4.25v-4.2h4.25v-5.55l5.39-1.66v7.21h7.62l-1.71,4.2h-5.91v13.37c0,1.92.78,2.85,2.39,2.85s3.16-.83,4.14-1.5l1.51,3.53c-2.33,1.71-5.34,2.59-7.67,2.59Z"/>
        <path class="cls-2" d="m240.26,50.23l-1.04-2.28c-1.56,1.45-3.83,2.8-7.26,2.8-4.3,0-7.83-2.95-7.83-7.72,0-5.03,3.78-7.83,10.16-8.09l4.56-.16v-.73c0-3.42-2.18-4.67-4.93-4.67s-4.87.98-6.38,1.97l-1.81-3.47c3.16-2.18,6.06-2.8,9.28-2.8,5.6,0,9.28,2.33,9.28,8.71v8.97c0,4.67.1,6.48.47,7.46h-4.51Zm-1.45-11.46l-3.99.16c-3.68.1-5.29,1.4-5.29,3.68s1.45,3.78,4.25,3.78c2.54,0,4.15-1.14,5.03-1.97v-5.65Z"/>
        <path class="cls-2" d="m252.48,50.91c-1.87,0-3.32-1.5-3.32-3.47s1.45-3.42,3.32-3.42,3.37,1.5,3.37,3.42-1.45,3.47-3.37,3.47Z"/>
        <path class="cls-2" d="m269.79,50.75c-1.45,0-2.59-.26-3.68-.67v12.44h-5.39V26.75c2.23-.78,5.18-1.66,9.02-1.66,8.24,0,12.8,4.87,12.8,12.49,0,8.04-5.75,13.17-12.75,13.17Zm-.36-21.05c-1.45,0-2.44.16-3.32.41v15.5c1.14.47,2.02.73,3.42.73,4.67,0,7.47-3.32,7.47-8.5,0-5.6-3.42-8.14-7.57-8.14Z"/>
        <path class="cls-2" d="m294.15,50.75c-4.04,0-5.75-2.33-5.75-5.55v-15.29h-4.25v-4.2h4.25v-5.55l5.39-1.66v7.21h7.62l-1.71,4.2h-5.91v13.37c0,1.92.78,2.85,2.38,2.85s3.16-.83,4.15-1.5l1.5,3.53c-2.33,1.71-5.34,2.59-7.67,2.59Z"/>
      </g>
      <path class="cls-1" d="m61.77,29.6c-.07.3-.1.6-.1.89,0,.02,0,.05,0,.07,0,.09,0,.18-.03.27-.08.33-.28.6-.55.75l-4.08,2.34c-.31.18-.68.24-1.05.16-.25-.06-.48-.18-.66-.34-.01-.01-.02-.02-.04-.03-.99-.89-2.22-1.56-3.62-1.87-4.38-1-8.73,1.74-9.73,6.11-1,4.38,1.74,8.73,6.11,9.73,4.38,1,8.73-1.74,9.73-6.11.26-1.14.26-2.28.05-3.35,0-.04-.01-.09-.02-.13-.04-.2-.04-.41,0-.62.09-.41.35-.74.69-.94,0,0,0,0,0,0l4.12-2.37c.25-.14.55-.2.84-.13.11.03.22.07.32.12.11.06.21.11.29.15.27.12.54.23.84.29,2.25.51,4.48-.89,4.99-3.14.51-2.25-.89-4.48-3.14-4.99s-4.48.89-4.99,3.14Zm-7.94,11.08c-.5,2.21-2.7,3.59-4.91,3.08-2.21-.5-3.59-2.7-3.08-4.91s2.7-3.59,4.91-3.08c2.21.5,3.59,2.7,3.08,4.91Zm12.44-12.04c1.08.25,1.75,1.32,1.51,2.4-.25,1.08-1.32,1.75-2.4,1.51-1.08-.25-1.75-1.32-1.51-2.4.25-1.08,1.32-1.75,2.4-1.51Zm-52.11,5.66c-3.05,3.29-2.86,8.43.43,11.49.86.79,1.84,1.36,2.88,1.72.04.02.09.03.12.05.19.06.38.17.54.32.31.29.47.68.47,1.07,0,0,0,0,0,0v4.75c0,.28-.11.57-.32.8-.08.09-.17.16-.26.21-.11.07-.2.12-.27.18-.24.17-.47.36-.68.58-1.57,1.69-1.47,4.33.22,5.89,1.69,1.57,4.33,1.47,5.89-.22,1.57-1.69,1.47-4.33-.22-5.89-.23-.21-.47-.38-.72-.53-.02-.01-.04-.03-.06-.04-.08-.04-.15-.1-.22-.16-.25-.23-.37-.54-.37-.86v-4.7c0-.35.14-.71.4-.99.18-.19.39-.32.62-.4.02,0,.03-.01.04-.02,1.27-.41,2.46-1.14,3.43-2.19,3.05-3.29,2.86-8.43-.43-11.49-3.29-3.05-8.43-2.86-11.49.43Zm7.27,22.49c.81.75.86,2.02.11,2.83-.75.81-2.02.86-2.83.11-.81-.75-.86-2.02-.11-2.83.75-.81,2.02-.86,2.83-.11Zm1.48-19.97c1.66,1.54,1.76,4.13.22,5.79-1.54,1.66-4.13,1.76-5.79.22-1.66-1.54-1.76-4.13-.22-5.79,1.54-1.66,4.13-1.76,5.79-.22ZM17.72.87c-2.2.68-3.44,3.01-2.76,5.21.68,2.2,3.01,3.44,5.21,2.76.29-.09.57-.21.82-.36.02-.01.04-.02.06-.03.08-.05.16-.08.25-.11.32-.1.66-.05.93.1l4.07,2.36c.31.18.55.47.66.83.08.25.08.5.03.74,0,.02,0,.03,0,.05-.28,1.31-.24,2.7.18,4.07,1.32,4.29,5.87,6.7,10.16,5.37,4.29-1.32,6.7-5.87,5.37-10.16-1.32-4.29-5.87-6.7-10.16-5.37-1.12.34-2.1.91-2.93,1.63-.03.03-.07.06-.1.08-.15.14-.34.24-.54.31-.4.12-.82.07-1.16-.13,0,0,0,0,0,0l-4.12-2.39c-.25-.14-.44-.37-.53-.67-.03-.11-.05-.22-.05-.33,0-.13,0-.23-.02-.33-.02-.29-.08-.58-.17-.88-.68-2.2-3.01-3.44-5.21-2.76Zm21.15,12.02c.67,2.16-.55,4.46-2.71,5.13-2.16.67-4.46-.55-5.13-2.71-.67-2.16.55-4.46,2.71-5.13,2.16-.67,4.46.55,5.13,2.71ZM20.93,4.25c.33,1.06-.27,2.18-1.32,2.5-1.06.33-2.18-.27-2.5-1.32-.33-1.06.27-2.18,1.32-2.5,1.06-.33,2.18.27,2.5,1.32Zm11.64,36.41c-4.29,1.32-6.7,5.87-5.37,10.16,1.32,4.29,5.87,6.7,10.16,5.37,1.12-.34,2.1-.91,2.93-1.63.03-.03.07-.06.1-.08.15-.14.33-.24.54-.31.4-.12.82-.07,1.16.13,0,0,0,0,0,0l4.11,2.39c.25.14.44.37.53.67.03.11.05.22.05.33,0,.13,0,.24.02.33.02.29.08.59.17.88.68,2.2,3.01,3.44,5.21,2.76s3.44-3.01,2.76-5.21c-.68-2.2-3.01-3.44-5.21-2.76-.29.09-.57.21-.82.36-.02.01-.04.02-.06.03-.08.05-.16.08-.25.11-.32.1-.66.05-.93-.1l-4.07-2.36c-.31-.18-.55-.47-.66-.83-.08-.25-.08-.5-.03-.74,0-.02,0-.03,0-.05.28-1.31.24-2.7-.18-4.07-1.32-4.29-5.87-6.7-10.16-5.37Zm20.24,16.44c.33,1.06-.27,2.18-1.32,2.5-1.06.33-2.18-.27-2.5-1.32-.33-1.06.27-2.18,1.32-2.5,1.06-.33,2.18.27,2.5,1.32Zm-13.93-9.88c.67,2.16-.55,4.46-2.71,5.13-2.16.67-4.46-.55-5.13-2.71-.67-2.16.55-4.46,2.71-5.13,2.16-.67,4.46.55,5.13,2.71ZM46.85,1.33c-1.57,1.69-1.47,4.33.22,5.89.23.21.47.38.72.53.02.01.04.03.06.04.08.04.15.1.22.16.25.23.37.54.37.86v4.7c0,.35-.14.71-.4.99-.18.19-.39.32-.62.4-.02,0-.03.01-.04.02-1.27.41-2.46,1.14-3.43,2.19-3.05,3.29-2.86,8.43.43,11.49,3.29,3.05,8.43,2.86,11.49-.43,3.05-3.29,2.86-8.43-.43-11.49-.86-.8-1.84-1.36-2.88-1.72-.04-.02-.09-.03-.12-.05-.19-.06-.38-.17-.54-.32-.31-.29-.47-.68-.47-1.07,0,0,0,0,0,0v-4.75c0-.28.11-.57.32-.8.08-.09.17-.16.26-.21.11-.07.2-.12.27-.18.24-.17.47-.36.68-.58,1.57-1.69,1.47-4.33-.22-5.89-1.69-1.57-4.33-1.47-5.89.22Zm5.84,18.31c1.66,1.54,1.76,4.13.22,5.79-1.54,1.66-4.13,1.76-5.79.22-1.66-1.54-1.76-4.13-.22-5.79,1.54-1.66,4.13-1.76,5.79-.22Zm-1.38-16.89c.81.75.86,2.02.11,2.83-.75.81-2.02.86-2.83.11-.81-.75-.86-2.02-.11-2.83.75-.81,2.02-.86,2.83-.11ZM12.25,20.86c-.26,1.14-.26,2.27-.05,3.35,0,.04.01.09.02.13.04.2.04.41,0,.62-.09.41-.35.74-.69.94,0,0,0,0,0,0l-4.12,2.37c-.25.14-.55.19-.84.13-.11-.03-.22-.07-.32-.12-.11-.06-.21-.11-.29-.15-.27-.12-.54-.23-.84-.29-2.25-.51-4.48.89-4.99,3.14-.51,2.25.89,4.48,3.14,4.99,2.25.51,4.48-.89,4.99-3.14.07-.3.1-.6.1-.89,0-.02,0-.05,0-.07,0-.09,0-.18.03-.27.08-.33.28-.59.55-.75l4.08-2.35c.31-.18.68-.24,1.05-.16.25.06.48.18.66.34.01.01.02.02.04.03.99.89,2.22,1.56,3.62,1.87,4.38,1,8.73-1.74,9.73-6.11,1-4.38-1.74-8.73-6.11-9.73-4.38-1-8.73,1.74-9.73,6.11Zm-8.51,12.93c-1.08-.25-1.75-1.32-1.51-2.4s1.32-1.75,2.4-1.51c1.08.25,1.75,1.32,1.51,2.4-.25,1.08-1.32,1.75-2.4,1.51Zm17.34-15.12c2.21.5,3.59,2.7,3.08,4.91-.5,2.21-2.7,3.59-4.91,3.08-2.21-.5-3.59-2.7-3.08-4.91.5-2.21,2.7-3.59,4.91-3.08Z"/>
    </g>
  </g>
</svg>