<?xml version="1.0" encoding="UTF-8"?><svg id="svg1" xmlns="http://www.w3.org/2000/svg" xmlns:xlink="http://www.w3.org/1999/xlink" viewBox="0 0 442.47 174.4"><defs><style>.cls-1{clip-path:url(#clippath);}.cls-2{fill:none;}.cls-2,.cls-3,.cls-4,.cls-5,.cls-6{stroke-width:0px;}.cls-3{fill:url(#linear-gradient);}.cls-7{clip-path:url(#clippath-1);}.cls-8{clip-path:url(#clippath-3);}.cls-9{clip-path:url(#clippath-2);}.cls-4{fill:url(#linear-gradient-2);}.cls-10{isolation:isolate;}.cls-5{fill:#4c4d4f;}.cls-6{fill:#b3b3b3;}</style><clipPath id="clippath"><rect class="cls-2" x="-2.29" y="38.56" width="112.38" height="99.32"/></clipPath><clipPath id="clippath-1"><path class="cls-2" d="m72.77,41.11c-2.43,2.62-2.28,6.73.34,9.16.36.33.74.6,1.13.84.02.01.05.04.08.05.12.07.23.15.35.26.38.36.57.84.58,1.33l-.02,7.31c0,.55-.19,1.1-.6,1.53-.28.3-.61.5-.97.62-.03.01-.04.02-.06.02-1.98.64-3.82,1.78-5.34,3.41-4.74,5.11-4.44,13.1.67,17.85,5.1,4.74,13.1,4.44,17.84-.66,4.75-5.11,4.45-13.1-.66-17.85-1.33-1.24-2.86-2.12-4.47-2.67-.06-.03-.13-.06-.18-.07-.3-.1-.58-.27-.84-.5-.48-.44-.72-1.04-.72-1.65h0s.01-7.39.01-7.39c.01-.44.16-.89.49-1.24.12-.13.26-.23.41-.33.17-.1.31-.19.42-.29.38-.26.74-.55,1.05-.9,2.44-2.62,2.29-6.73-.34-9.16-1.25-1.15-2.83-1.73-4.41-1.73-1.74,0-3.47.69-4.75,2.06m2.72,6.77c-1.27-1.17-1.34-3.14-.17-4.4,1.17-1.26,3.13-1.33,4.4-.16,1.26,1.17,1.33,3.13.16,4.4-.61.65-1.45.99-2.29.99-.76,0-1.51-.28-2.1-.83m-2.3,31.02c-2.58-2.4-2.73-6.42-.34-9,2.39-2.57,6.42-2.73,8.99-.34,2.58,2.4,2.73,6.42.34,9-1.26,1.35-2.96,2.03-4.67,2.03-1.55,0-3.1-.56-4.33-1.69M27.53,40.39c-3.42,1.05-5.34,4.68-4.29,8.1s4.69,5.34,8.11,4.29c.45-.14.88-.34,1.28-.56.03-.02.07-.03.09-.05.12-.07.26-.13.39-.16.5-.16,1.02-.09,1.45.15l6.32,3.67c.47.28.85.72,1.02,1.3.12.39.13.78.05,1.14,0,.03,0,.05-.01.07-.43,2.03-.37,4.2.29,6.32,2.05,6.67,9.13,10.4,15.78,8.35,6.67-2.06,10.4-9.13,8.35-15.78-2.05-6.67-9.13-10.4-15.78-8.35-1.74.54-3.27,1.42-4.55,2.53-.05.05-.11.09-.15.13-.23.21-.52.38-.85.47-.63.19-1.28.1-1.8-.19t-.01-.01l-6.39-3.71c-.38-.21-.68-.57-.83-1.03-.05-.17-.08-.35-.08-.52,0-.2-.01-.37-.03-.51-.04-.45-.11-.9-.26-1.36-.86-2.78-3.42-4.57-6.19-4.57-.63,0-1.28.1-1.91.3m-.97,7.08c-.5-1.64.42-3.38,2.06-3.89,1.63-.5,3.38.42,3.89,2.06.5,1.63-.42,3.38-2.06,3.88-.31.1-.61.14-.91.14-1.34,0-2.56-.86-2.98-2.19m21.64,15.33c-1.03-3.35.85-6.92,4.21-7.95,3.37-1.03,6.93.85,7.96,4.21,1.04,3.36-.85,6.92-4.21,7.96-.62.19-1.26.29-1.88.29-2.73,0-5.24-1.76-6.08-4.5m-29.18,8.64c-.4,1.78-.4,3.53-.08,5.21.01.07.02.15.03.2.07.32.07.64-.01.97-.14.64-.54,1.15-1.07,1.46l-6.41,3.68c-.38.22-.85.31-1.31.2-.17-.04-.34-.1-.49-.19-.17-.09-.32-.16-.45-.22-.42-.19-.85-.35-1.31-.45-3.49-.8-6.96,1.38-7.76,4.87-.81,3.48,1.38,6.96,4.87,7.76,3.49.79,6.96-1.39,7.76-4.88.1-.46.15-.93.15-1.39,0-.03.01-.07.01-.1,0-.13.01-.28.04-.42.12-.52.44-.93.87-1.17l6.33-3.63c.47-.28,1.05-.38,1.63-.24.39.09.74.28,1.02.53.02.02.03.02.05.04,1.55,1.39,3.45,2.42,5.62,2.91,6.8,1.55,13.57-2.7,15.12-9.49,1.56-6.8-2.7-13.57-9.49-15.12-.95-.21-1.89-.32-2.82-.32-5.76,0-10.96,3.96-12.3,9.81m10.89,9.02c-3.43-.79-5.57-4.2-4.79-7.63.78-3.43,4.2-5.57,7.63-4.8,3.43.79,5.57,4.21,4.79,7.63-.67,2.95-3.3,4.96-6.21,4.96-.47,0-.94-.06-1.42-.16m-24.1,11.07c-1.67-.39-2.73-2.05-2.34-3.73.38-1.67,2.05-2.72,3.72-2.34,1.67.39,2.73,2.05,2.35,3.73-.34,1.44-1.61,2.42-3.03,2.42-.22,0-.46-.03-.69-.08m90.13-6.51c-.1.46-.15.93-.15,1.39,0,.03-.01.07-.01.1,0,.14-.01.28-.04.42-.12.51-.44.93-.86,1.17l-6.34,3.64c-.48.27-1.05.37-1.63.23-.39-.08-.74-.28-1.02-.53-.02-.02-.03-.02-.05-.04-1.54-1.39-3.45-2.42-5.62-2.91-6.8-1.55-13.57,2.7-15.12,9.49s2.7,13.57,9.49,15.12c6.8,1.55,13.57-2.71,15.12-9.49.4-1.78.41-3.54.08-5.21-.01-.07-.02-.14-.03-.2-.07-.32-.07-.64.01-.97.14-.63.54-1.15,1.07-1.46l6.41-3.69c.38-.21.85-.3,1.31-.19.17.04.34.1.49.18.18.1.32.18.45.23.42.19.85.35,1.31.45,3.49.81,6.96-1.38,7.76-4.87.81-3.48-1.38-6.96-4.87-7.76-.48-.11-.97-.16-1.44-.16-2.96,0-5.64,2.04-6.32,5.04m5.6,4.57c-1.67-.39-2.73-2.05-2.34-3.73.38-1.67,2.04-2.72,3.72-2.34,1.67.39,2.73,2.05,2.34,3.73-.33,1.44-1.6,2.42-3.02,2.42-.23,0-.46-.03-.69-.08m-25.56,17.42c-3.42-.78-5.57-4.2-4.79-7.62.79-3.43,4.2-5.57,7.63-4.8,3.43.79,5.57,4.2,4.79,7.63-.67,2.95-3.3,4.95-6.2,4.95-.47,0-.95-.05-1.43-.16m-54-14.68c-4.75,5.1-4.44,13.1.66,17.84,1.33,1.24,2.86,2.12,4.47,2.67.06.03.13.06.18.08.31.09.59.26.84.49.48.44.72,1.05.72,1.65h0s-.01,7.39-.01,7.39c0,.44-.16.89-.49,1.24-.12.13-.26.24-.41.34-.17.09-.31.18-.42.28-.38.26-.72.56-1.05.9-2.44,2.62-2.29,6.73.34,9.16,2.62,2.44,6.73,2.28,9.16-.34,2.43-2.62,2.29-6.73-.34-9.16-.36-.33-.74-.59-1.12-.83-.03-.02-.06-.04-.09-.06-.12-.07-.23-.15-.34-.24-.39-.37-.58-.85-.59-1.34v-7.31c.02-.54.22-1.09.62-1.53.28-.3.61-.5.97-.61.03-.01.04-.02.07-.03,1.97-.64,3.81-1.78,5.33-3.41,4.74-5.11,4.44-13.1-.67-17.85-2.43-2.25-5.5-3.37-8.59-3.37-3.39,0-6.77,1.36-9.25,4.04m4.92,13.25c-2.58-2.39-2.73-6.42-.34-9,2.39-2.57,6.42-2.73,8.99-.33,2.58,2.39,2.74,6.42.34,8.99-1.25,1.36-2.95,2.04-4.67,2.04-1.55,0-3.1-.56-4.33-1.7m2.13,26.24c-1.26-1.16-1.33-3.13-.16-4.39,1.17-1.26,3.14-1.34,4.4-.16,1.26,1.16,1.33,3.13.16,4.39-.61.66-1.45,1-2.28,1-.77,0-1.52-.28-2.12-.84m21.55-29.63c-6.67,2.05-10.4,9.13-8.35,15.78,2.05,6.67,9.13,10.4,15.78,8.34,1.74-.52,3.27-1.41,4.55-2.52.06-.05.11-.09.16-.13.23-.21.51-.38.84-.48.63-.18,1.28-.09,1.81.2h0s6.39,3.71,6.39,3.71c.38.22.68.58.83,1.04.05.17.08.35.08.52,0,.2.01.36.03.5.04.46.11.91.26,1.37,1.05,3.41,4.69,5.33,8.1,4.28,3.42-1.05,5.34-4.68,4.29-8.1s-4.69-5.34-8.11-4.29c-.45.14-.88.34-1.28.56-.03.02-.06.03-.09.04-.12.07-.26.13-.39.17-.5.15-1.02.08-1.44-.15l-6.33-3.67c-.47-.29-.85-.74-1.02-1.3-.12-.39-.13-.78-.05-1.15.01-.02.01-.04.01-.06.43-2.03.37-4.2-.29-6.33-1.67-5.42-6.67-8.9-12.07-8.9-1.23,0-2.48.18-3.72.56m-2.37,13.95c-1.04-3.37.85-6.93,4.21-7.96,3.36-1.04,6.93.85,7.96,4.21,1.04,3.36-.85,6.92-4.21,7.96-.62.19-1.26.29-1.88.29-2.73,0-5.24-1.76-6.08-4.49m27.87,13.41c-.51-1.64.41-3.38,2.05-3.89,1.63-.5,3.38.42,3.89,2.06.5,1.63-.42,3.38-2.06,3.89-.31.09-.61.13-.91.13-1.34,0-2.56-.86-2.97-2.19"/></clipPath><linearGradient id="linear-gradient" x1="140.27" y1="113.36" x2="141.66" y2="113.36" gradientTransform="translate(-1997.9 18996.65) rotate(-45) scale(105.14 -105.14)" gradientUnits="userSpaceOnUse"><stop offset="0" stop-color="#91268f"/><stop offset=".25" stop-color="#92268f"/><stop offset=".25" stop-color="#93268e"/><stop offset=".26" stop-color="#95268e"/><stop offset=".26" stop-color="#97258d"/><stop offset=".27" stop-color="#98258c"/><stop offset=".27" stop-color="#9a258c"/><stop offset=".27" stop-color="#9b248c"/><stop offset=".28" stop-color="#9c248b"/><stop offset=".28" stop-color="#9e248b"/><stop offset=".29" stop-color="#9f248a"/><stop offset=".29" stop-color="#a1238a"/><stop offset=".29" stop-color="#a22389"/><stop offset=".3" stop-color="#a42389"/><stop offset=".3" stop-color="#a52289"/><stop offset=".3" stop-color="#a72288"/><stop offset=".31" stop-color="#a82188"/><stop offset=".31" stop-color="#aa2187"/><stop offset=".32" stop-color="#ab2187"/><stop offset=".32" stop-color="#ac2087"/><stop offset=".32" stop-color="#ae2086"/><stop offset=".33" stop-color="#af1f86"/><stop offset=".33" stop-color="#b11f85"/><stop offset=".34" stop-color="#b21f85"/><stop offset=".34" stop-color="#b41e85"/><stop offset=".34" stop-color="#b61e84"/><stop offset=".35" stop-color="#b71d84"/><stop offset=".35" stop-color="#b81d84"/><stop offset=".36" stop-color="#ba1c83"/><stop offset=".36" stop-color="#bb1c83"/><stop offset=".36" stop-color="#bd1b82"/><stop offset=".37" stop-color="#be1b82"/><stop offset=".37" stop-color="#bf1a82"/><stop offset=".38" stop-color="#c11a81"/><stop offset=".38" stop-color="#c31981"/><stop offset=".38" stop-color="#c41880"/><stop offset=".39" stop-color="#c61880"/><stop offset=".39" stop-color="#c7177f"/><stop offset=".39" stop-color="#c9177f"/><stop offset=".4" stop-color="#ca167f"/><stop offset=".4" stop-color="#cb167f"/><stop offset=".41" stop-color="#cd167e"/><stop offset=".41" stop-color="#ce157e"/><stop offset=".41" stop-color="#cf157d"/><stop offset=".42" stop-color="#d2147d"/><stop offset=".42" stop-color="#d3137d"/><stop offset=".43" stop-color="#d4127c"/><stop offset=".43" stop-color="#d6127c"/><stop offset=".43" stop-color="#d7117c"/><stop offset=".44" stop-color="#d8107b"/><stop offset=".44" stop-color="#da107b"/><stop offset=".45" stop-color="#db0f7b"/><stop offset=".45" stop-color="#dd0f7a"/><stop offset=".45" stop-color="#de0e7a"/><stop offset=".46" stop-color="#df0d7a"/><stop offset=".46" stop-color="#e20c79"/><stop offset=".46" stop-color="#e30c79"/><stop offset=".47" stop-color="#e40b79"/><stop offset=".47" stop-color="#e60a78"/><stop offset=".48" stop-color="#e70978"/><stop offset=".48" stop-color="#e90878"/><stop offset=".48" stop-color="#eb0677"/><stop offset=".49" stop-color="#ed0f77"/><stop offset=".49" stop-color="#ed1977"/><stop offset=".5" stop-color="#ed2177"/><stop offset=".5" stop-color="#ed2777"/><stop offset=".5" stop-color="#ee2d77"/><stop offset=".51" stop-color="#ee3277"/><stop offset=".51" stop-color="#ee3776"/><stop offset=".52" stop-color="#ee3b76"/><stop offset=".52" stop-color="#ee3f76"/><stop offset=".52" stop-color="#ef4376"/><stop offset=".53" stop-color="#ef4675"/><stop offset=".53" stop-color="#ef4a75"/><stop offset=".54" stop-color="#ef4d75"/><stop offset=".54" stop-color="#f05174"/><stop offset=".54" stop-color="#f05474"/><stop offset=".55" stop-color="#f05774"/><stop offset=".55" stop-color="#f05a74"/><stop offset=".55" stop-color="#f15d73"/><stop offset=".56" stop-color="#f15f73"/><stop offset=".56" stop-color="#f16272"/><stop offset=".57" stop-color="#f16672"/><stop offset=".57" stop-color="#f26871"/><stop offset=".57" stop-color="#f26b70"/><stop offset=".58" stop-color="#f26d70"/><stop offset=".58" stop-color="#f27070"/><stop offset=".59" stop-color="#f3726f"/><stop offset=".59" stop-color="#f3746e"/><stop offset=".59" stop-color="#f3776d"/><stop offset=".6" stop-color="#f3796d"/><stop offset=".6" stop-color="#f47b6c"/><stop offset=".61" stop-color="#f47d6b"/><stop offset=".61" stop-color="#f47f6b"/><stop offset=".61" stop-color="#f4826a"/><stop offset=".62" stop-color="#f58469"/><stop offset=".62" stop-color="#f58668"/><stop offset=".62" stop-color="#f58867"/><stop offset=".63" stop-color="#f58a66"/><stop offset=".63" stop-color="#f68c65"/><stop offset=".64" stop-color="#f68e64"/><stop offset=".64" stop-color="#f69063"/><stop offset=".64" stop-color="#f79262"/><stop offset=".65" stop-color="#f79460"/><stop offset=".65" stop-color="#f7965f"/><stop offset=".66" stop-color="#f7985d"/><stop offset=".66" stop-color="#f89b5c"/><stop offset=".66" stop-color="#f89d5b"/><stop offset=".67" stop-color="#f99f59"/><stop offset=".67" stop-color="#f9a157"/><stop offset=".68" stop-color="#f9a455"/><stop offset=".68" stop-color="#faa653"/><stop offset=".68" stop-color="#faa851"/><stop offset=".69" stop-color="#faaa50"/><stop offset=".69" stop-color="#fbac4e"/><stop offset=".7" stop-color="#fbae4b"/><stop offset=".7" stop-color="#fbb049"/><stop offset=".7" stop-color="#fcb246"/><stop offset=".71" stop-color="#fcb544"/><stop offset=".71" stop-color="#fdb741"/><stop offset=".71" stop-color="#fdb93f"/><stop offset=".72" stop-color="#fdbb3c"/><stop offset=".72" stop-color="#febd39"/><stop offset=".73" stop-color="#febf36"/><stop offset=".73" stop-color="#fec132"/><stop offset=".73" stop-color="#ffc42e"/><stop offset=".74" stop-color="#ffc62a"/><stop offset=".74" stop-color="#ffc827"/><stop offset=".75" stop-color="#ffca22"/><stop offset=".75" stop-color="#ffcc1c"/><stop offset=".75" stop-color="#ffce15"/><stop offset=".76" stop-color="#ffd00c"/><stop offset=".76" stop-color="#ffd204"/><stop offset=".77" stop-color="#ffd400"/><stop offset=".78" stop-color="#ffd400"/><stop offset=".81" stop-color="#ffd400"/><stop offset=".88" stop-color="#ffd400"/><stop offset="1" stop-color="#ffd400"/></linearGradient><clipPath id="clippath-2"><rect class="cls-2" x="-2.29" y="38.56" width="112.38" height="99.32"/></clipPath><clipPath id="clippath-3"><path class="cls-2" d="m72.77,41.11c-2.43,2.62-2.28,6.73.34,9.16.36.33.74.6,1.13.84.02.01.05.04.08.05.12.07.23.15.35.26.38.36.57.84.58,1.33l-.02,7.31c0,.55-.19,1.1-.6,1.53-.28.3-.61.5-.97.62-.03.01-.04.02-.06.02-1.98.64-3.82,1.78-5.34,3.41-4.74,5.11-4.44,13.1.67,17.85,5.1,4.74,13.1,4.44,17.84-.66,4.75-5.11,4.45-13.1-.66-17.85-1.33-1.24-2.86-2.12-4.47-2.67-.06-.03-.13-.06-.18-.07-.3-.1-.58-.27-.84-.5-.48-.44-.72-1.04-.72-1.65h0s.01-7.39.01-7.39c.01-.44.16-.89.49-1.24.12-.13.26-.23.41-.33.17-.1.31-.19.42-.29.38-.26.74-.55,1.05-.9,2.44-2.62,2.29-6.73-.34-9.16-1.25-1.15-2.83-1.73-4.41-1.73-1.74,0-3.47.69-4.75,2.06m2.72,6.77c-1.27-1.17-1.34-3.14-.17-4.4,1.17-1.26,3.13-1.33,4.4-.16,1.26,1.17,1.33,3.13.16,4.4-.61.65-1.45.99-2.29.99-.76,0-1.51-.28-2.1-.83m-2.3,31.02c-2.58-2.4-2.73-6.42-.34-9,2.39-2.57,6.42-2.73,8.99-.34,2.58,2.4,2.73,6.42.34,9-1.26,1.35-2.96,2.03-4.67,2.03-1.55,0-3.1-.56-4.33-1.69M27.53,40.39c-3.42,1.05-5.34,4.68-4.29,8.1s4.69,5.34,8.11,4.29c.45-.14.88-.34,1.28-.56.03-.02.07-.03.09-.05.12-.07.26-.13.39-.16.5-.16,1.02-.09,1.45.15l6.32,3.67c.47.28.85.72,1.02,1.3.12.39.13.78.05,1.14,0,.03,0,.05-.01.07-.43,2.03-.37,4.2.29,6.32,2.05,6.67,9.13,10.4,15.78,8.35,6.67-2.06,10.4-9.13,8.35-15.78-2.05-6.67-9.13-10.4-15.78-8.35-1.74.54-3.27,1.42-4.55,2.53-.05.05-.11.09-.15.13-.23.21-.52.38-.85.47-.63.19-1.28.1-1.8-.19t-.01-.01l-6.39-3.71c-.38-.21-.68-.57-.83-1.03-.05-.17-.08-.35-.08-.52,0-.2-.01-.37-.03-.51-.04-.45-.11-.9-.26-1.36-.86-2.78-3.42-4.57-6.19-4.57-.63,0-1.28.1-1.91.3m-.97,7.08c-.5-1.64.42-3.38,2.06-3.89,1.63-.5,3.38.42,3.89,2.06.5,1.63-.42,3.38-2.06,3.88-.31.1-.61.14-.91.14-1.34,0-2.56-.86-2.98-2.19m21.64,15.33c-1.03-3.35.85-6.92,4.21-7.95,3.37-1.03,6.93.85,7.96,4.21,1.04,3.36-.85,6.92-4.21,7.96-.62.19-1.26.29-1.88.29-2.73,0-5.24-1.76-6.08-4.5m-29.18,8.64c-.4,1.78-.4,3.53-.08,5.21.01.07.02.15.03.2.07.32.07.64-.01.97-.14.64-.54,1.15-1.07,1.46l-6.41,3.68c-.38.22-.85.31-1.31.2-.17-.04-.34-.1-.49-.19-.17-.09-.32-.16-.45-.22-.42-.19-.85-.35-1.31-.45-3.49-.8-6.96,1.38-7.76,4.87-.81,3.48,1.38,6.96,4.87,7.76,3.49.79,6.96-1.39,7.76-4.88.1-.46.15-.93.15-1.39,0-.03.01-.07.01-.1,0-.13.01-.28.04-.42.12-.52.44-.93.87-1.17l6.33-3.63c.47-.28,1.05-.38,1.63-.24.39.09.74.28,1.02.53.02.02.03.02.05.04,1.55,1.39,3.45,2.42,5.62,2.91,6.8,1.55,13.57-2.7,15.12-9.49,1.56-6.8-2.7-13.57-9.49-15.12-.95-.21-1.89-.32-2.82-.32-5.76,0-10.96,3.96-12.3,9.81m10.89,9.02c-3.43-.79-5.57-4.2-4.79-7.63.78-3.43,4.2-5.57,7.63-4.8,3.43.79,5.57,4.21,4.79,7.63-.67,2.95-3.3,4.96-6.21,4.96-.47,0-.94-.06-1.42-.16m-24.1,11.07c-1.67-.39-2.73-2.05-2.34-3.73.38-1.67,2.05-2.72,3.72-2.34,1.67.39,2.73,2.05,2.35,3.73-.34,1.44-1.61,2.42-3.03,2.42-.22,0-.46-.03-.69-.08m90.13-6.51c-.1.46-.15.93-.15,1.39,0,.03-.01.07-.01.1,0,.14-.01.28-.04.42-.12.51-.44.93-.86,1.17l-6.34,3.64c-.48.27-1.05.37-1.63.23-.39-.08-.74-.28-1.02-.53-.02-.02-.03-.02-.05-.04-1.54-1.39-3.45-2.42-5.62-2.91-6.8-1.55-13.57,2.7-15.12,9.49s2.7,13.57,9.49,15.12c6.8,1.55,13.57-2.71,15.12-9.49.4-1.78.41-3.54.08-5.21-.01-.07-.02-.14-.03-.2-.07-.32-.07-.64.01-.97.14-.63.54-1.15,1.07-1.46l6.41-3.69c.38-.21.85-.3,1.31-.19.17.04.34.1.49.18.18.1.32.18.45.23.42.19.85.35,1.31.45,3.49.81,6.96-1.38,7.76-4.87.81-3.48-1.38-6.96-4.87-7.76-.48-.11-.97-.16-1.44-.16-2.96,0-5.64,2.04-6.32,5.04m5.6,4.57c-1.67-.39-2.73-2.05-2.34-3.73.38-1.67,2.04-2.72,3.72-2.34,1.67.39,2.73,2.05,2.34,3.73-.33,1.44-1.6,2.42-3.02,2.42-.23,0-.46-.03-.69-.08m-25.56,17.42c-3.42-.78-5.57-4.2-4.79-7.62.79-3.43,4.2-5.57,7.63-4.8,3.43.79,5.57,4.2,4.79,7.63-.67,2.95-3.3,4.95-6.2,4.95-.47,0-.95-.05-1.43-.16m-54-14.68c-4.75,5.1-4.44,13.1.66,17.84,1.33,1.24,2.86,2.12,4.47,2.67.06.03.13.06.18.08.31.09.59.26.84.49.48.44.72,1.05.72,1.65h0s-.01,7.39-.01,7.39c0,.44-.16.89-.49,1.24-.12.13-.26.24-.41.34-.17.09-.31.18-.42.28-.38.26-.72.56-1.05.9-2.44,2.62-2.29,6.73.34,9.16,2.62,2.44,6.73,2.28,9.16-.34,2.43-2.62,2.29-6.73-.34-9.16-.36-.33-.74-.59-1.12-.83-.03-.02-.06-.04-.09-.06-.12-.07-.23-.15-.34-.24-.39-.37-.58-.85-.59-1.34v-7.31c.02-.54.22-1.09.62-1.53.28-.3.61-.5.97-.61.03-.01.04-.02.07-.03,1.97-.64,3.81-1.78,5.33-3.41,4.74-5.11,4.44-13.1-.67-17.85-2.43-2.25-5.5-3.37-8.59-3.37-3.39,0-6.77,1.36-9.25,4.04m4.92,13.25c-2.58-2.39-2.73-6.42-.34-9,2.39-2.57,6.42-2.73,8.99-.33,2.58,2.39,2.74,6.42.34,8.99-1.25,1.36-2.95,2.04-4.67,2.04-1.55,0-3.1-.56-4.33-1.7m2.13,26.24c-1.26-1.16-1.33-3.13-.16-4.39,1.17-1.26,3.14-1.34,4.4-.16,1.26,1.16,1.33,3.13.16,4.39-.61.66-1.45,1-2.28,1-.77,0-1.52-.28-2.12-.84m21.55-29.63c-6.67,2.05-10.4,9.13-8.35,15.78,2.05,6.67,9.13,10.4,15.78,8.34,1.74-.52,3.27-1.41,4.55-2.52.06-.05.11-.09.16-.13.23-.21.51-.38.84-.48.63-.18,1.28-.09,1.81.2h0s6.39,3.71,6.39,3.71c.38.22.68.58.83,1.04.05.17.08.35.08.52,0,.2.01.36.03.5.04.46.11.91.26,1.37,1.05,3.41,4.69,5.33,8.1,4.28,3.42-1.05,5.34-4.68,4.29-8.1s-4.69-5.34-8.11-4.29c-.45.14-.88.34-1.28.56-.03.02-.06.03-.09.04-.12.07-.26.13-.39.17-.5.15-1.02.08-1.44-.15l-6.33-3.67c-.47-.29-.85-.74-1.02-1.3-.12-.39-.13-.78-.05-1.15.01-.02.01-.04.01-.06.43-2.03.37-4.2-.29-6.33-1.67-5.42-6.67-8.9-12.07-8.9-1.23,0-2.48.18-3.72.56m-2.37,13.95c-1.04-3.37.85-6.93,4.21-7.96,3.36-1.04,6.93.85,7.96,4.21,1.04,3.36-.85,6.92-4.21,7.96-.62.19-1.26.29-1.88.29-2.73,0-5.24-1.76-6.08-4.49m27.87,13.41c-.51-1.64.41-3.38,2.05-3.89,1.63-.5,3.38.42,3.89,2.06.5,1.63-.42,3.38-2.06,3.89-.31.09-.61.13-.91.13-1.34,0-2.56-.86-2.97-2.19"/></clipPath><linearGradient id="linear-gradient-2" x1="140.27" y1="113.36" x2="141.66" y2="113.36" gradientTransform="translate(-1997.9 18996.65) rotate(-45) scale(105.14 -105.14)" gradientUnits="userSpaceOnUse"><stop offset="0" stop-color="#91268f"/><stop offset=".25" stop-color="#92268f"/><stop offset=".25" stop-color="#93268e"/><stop offset=".26" stop-color="#95268e"/><stop offset=".26" stop-color="#97258d"/><stop offset=".27" stop-color="#98258c"/><stop offset=".27" stop-color="#9a258c"/><stop offset=".27" stop-color="#9b248c"/><stop offset=".28" stop-color="#9c248b"/><stop offset=".28" stop-color="#9e248b"/><stop offset=".29" stop-color="#9f248a"/><stop offset=".29" stop-color="#a1238a"/><stop offset=".29" stop-color="#a22389"/><stop offset=".3" stop-color="#a42389"/><stop offset=".3" stop-color="#a52289"/><stop offset=".3" stop-color="#a72288"/><stop offset=".31" stop-color="#a82188"/><stop offset=".31" stop-color="#aa2187"/><stop offset=".32" stop-color="#ab2187"/><stop offset=".32" stop-color="#ac2087"/><stop offset=".32" stop-color="#ae2086"/><stop offset=".33" stop-color="#af1f86"/><stop offset=".33" stop-color="#b11f85"/><stop offset=".34" stop-color="#b21f85"/><stop offset=".34" stop-color="#b41e85"/><stop offset=".34" stop-color="#b61e84"/><stop offset=".35" stop-color="#b71d84"/><stop offset=".35" stop-color="#b81d84"/><stop offset=".36" stop-color="#ba1c83"/><stop offset=".36" stop-color="#bb1c83"/><stop offset=".36" stop-color="#bd1b82"/><stop offset=".37" stop-color="#be1b82"/><stop offset=".37" stop-color="#bf1a82"/><stop offset=".38" stop-color="#c11a81"/><stop offset=".38" stop-color="#c31981"/><stop offset=".38" stop-color="#c41880"/><stop offset=".39" stop-color="#c61880"/><stop offset=".39" stop-color="#c7177f"/><stop offset=".39" stop-color="#c9177f"/><stop offset=".4" stop-color="#ca167f"/><stop offset=".4" stop-color="#cb167f"/><stop offset=".41" stop-color="#cd167e"/><stop offset=".41" stop-color="#ce157e"/><stop offset=".41" stop-color="#cf157d"/><stop offset=".42" stop-color="#d2147d"/><stop offset=".42" stop-color="#d3137d"/><stop offset=".43" stop-color="#d4127c"/><stop offset=".43" stop-color="#d6127c"/><stop offset=".43" stop-color="#d7117c"/><stop offset=".44" stop-color="#d8107b"/><stop offset=".44" stop-color="#da107b"/><stop offset=".45" stop-color="#db0f7b"/><stop offset=".45" stop-color="#dd0f7a"/><stop offset=".45" stop-color="#de0e7a"/><stop offset=".46" stop-color="#df0d7a"/><stop offset=".46" stop-color="#e20c79"/><stop offset=".46" stop-color="#e30c79"/><stop offset=".47" stop-color="#e40b79"/><stop offset=".47" stop-color="#e60a78"/><stop offset=".48" stop-color="#e70978"/><stop offset=".48" stop-color="#e90878"/><stop offset=".48" stop-color="#eb0677"/><stop offset=".49" stop-color="#ed0f77"/><stop offset=".49" stop-color="#ed1977"/><stop offset=".5" stop-color="#ed2177"/><stop offset=".5" stop-color="#ed2777"/><stop offset=".5" stop-color="#ee2d77"/><stop offset=".51" stop-color="#ee3277"/><stop offset=".51" stop-color="#ee3776"/><stop offset=".52" stop-color="#ee3b76"/><stop offset=".52" stop-color="#ee3f76"/><stop offset=".52" stop-color="#ef4376"/><stop offset=".53" stop-color="#ef4675"/><stop offset=".53" stop-color="#ef4a75"/><stop offset=".54" stop-color="#ef4d75"/><stop offset=".54" stop-color="#f05174"/><stop offset=".54" stop-color="#f05474"/><stop offset=".55" stop-color="#f05774"/><stop offset=".55" stop-color="#f05a74"/><stop offset=".55" stop-color="#f15d73"/><stop offset=".56" stop-color="#f15f73"/><stop offset=".56" stop-color="#f16272"/><stop offset=".57" stop-color="#f16672"/><stop offset=".57" stop-color="#f26871"/><stop offset=".57" stop-color="#f26b70"/><stop offset=".58" stop-color="#f26d70"/><stop offset=".58" stop-color="#f27070"/><stop offset=".59" stop-color="#f3726f"/><stop offset=".59" stop-color="#f3746e"/><stop offset=".59" stop-color="#f3776d"/><stop offset=".6" stop-color="#f3796d"/><stop offset=".6" stop-color="#f47b6c"/><stop offset=".61" stop-color="#f47d6b"/><stop offset=".61" stop-color="#f47f6b"/><stop offset=".61" stop-color="#f4826a"/><stop offset=".62" stop-color="#f58469"/><stop offset=".62" stop-color="#f58668"/><stop offset=".62" stop-color="#f58867"/><stop offset=".63" stop-color="#f58a66"/><stop offset=".63" stop-color="#f68c65"/><stop offset=".64" stop-color="#f68e64"/><stop offset=".64" stop-color="#f69063"/><stop offset=".64" stop-color="#f79262"/><stop offset=".65" stop-color="#f79460"/><stop offset=".65" stop-color="#f7965f"/><stop offset=".66" stop-color="#f7985d"/><stop offset=".66" stop-color="#f89b5c"/><stop offset=".66" stop-color="#f89d5b"/><stop offset=".67" stop-color="#f99f59"/><stop offset=".67" stop-color="#f9a157"/><stop offset=".68" stop-color="#f9a455"/><stop offset=".68" stop-color="#faa653"/><stop offset=".68" stop-color="#faa851"/><stop offset=".69" stop-color="#faaa50"/><stop offset=".69" stop-color="#fbac4e"/><stop offset=".7" stop-color="#fbae4b"/><stop offset=".7" stop-color="#fbb049"/><stop offset=".7" stop-color="#fcb246"/><stop offset=".71" stop-color="#fcb544"/><stop offset=".71" stop-color="#fdb741"/><stop offset=".71" stop-color="#fdb93f"/><stop offset=".72" stop-color="#fdbb3c"/><stop offset=".72" stop-color="#febd39"/><stop offset=".73" stop-color="#febf36"/><stop offset=".73" stop-color="#fec132"/><stop offset=".73" stop-color="#ffc42e"/><stop offset=".74" stop-color="#ffc62a"/><stop offset=".74" stop-color="#ffc827"/><stop offset=".75" stop-color="#ffca22"/><stop offset=".75" stop-color="#ffcc1c"/><stop offset=".75" stop-color="#ffce15"/><stop offset=".76" stop-color="#ffd00c"/><stop offset=".76" stop-color="#ffd204"/><stop offset=".77" stop-color="#ffd400"/><stop offset=".78" stop-color="#ffd400"/><stop offset=".81" stop-color="#ffd400"/><stop offset=".88" stop-color="#ffd400"/><stop offset="1" stop-color="#ffd400"/></linearGradient></defs><g id="layer2"><g id="text1" class="cls-10"><g class="cls-10"><path class="cls-5" d="m150.57,33.98h-5.86c-3.33-5.47-5.23-8.58-5.71-9.31-1.41-2.18-2.38-3.34-2.93-3.5h-2.93v12.82h-5.04V2.35h7.87c3.74,0,6.56.86,8.45,2.59,1.66,1.54,2.5,3.62,2.5,6.24,0,2.02-.59,3.79-1.78,5.33-1.06,1.34-2.45,2.35-4.18,3.02v.05c.58.32,1.71,1.79,3.41,4.42.77,1.18,2.83,4.51,6.19,9.98Zm-8.78-22.27c0-1.47-.45-2.64-1.34-3.5-.99-.99-2.46-1.49-4.42-1.49h-2.88v10.51h2.98c1.6,0,2.94-.54,4.03-1.61,1.09-1.07,1.63-2.38,1.63-3.91Z"/><path class="cls-5" d="m170.88,23.81h-14.59c.03,1.89.67,3.45,1.92,4.68,1.25,1.23,2.88,1.85,4.9,1.85s3.82-.53,5.71-1.58l1.3,3.26c-2.24,1.63-4.88,2.45-7.92,2.45-3.62,0-6.42-1.22-8.4-3.65-1.76-2.21-2.64-4.99-2.64-8.35s.9-6.12,2.71-8.38c1.81-2.26,4.22-3.38,7.22-3.38s5.39,1.07,7.15,3.22c1.76,2.14,2.64,4.98,2.64,8.5v1.39Zm-5.18-3.7c-.03-1.47-.43-2.72-1.19-3.74-.86-1.18-2.02-1.78-3.49-1.78s-2.54.54-3.41,1.63c-.88,1.09-1.31,2.38-1.31,3.89h9.41Z"/><path class="cls-5" d="m193.53,33.98h-4.18l-.96-2.11c-1.86,1.73-4.1,2.59-6.72,2.59-2.05,0-3.77-.66-5.16-1.97-1.39-1.31-2.09-3.04-2.09-5.18,0-2.3.82-4.1,2.47-5.38,1.65-1.28,3.96-1.98,6.94-2.11l4.22-.14v-.67c0-2.88-1.52-4.32-4.56-4.32-2.05,0-4.02.61-5.9,1.82l-1.68-3.22c2.46-1.73,5.33-2.59,8.59-2.59,5.73,0,8.59,2.69,8.59,8.06v8.3c0,3.78.14,6.08.43,6.91Zm-5.47-5.38v-5.23l-3.72.14c-3.28.1-4.92,1.23-4.92,3.41,0,1.02.35,1.86,1.04,2.52.69.66,1.67.98,2.92.98,1.83,0,3.4-.61,4.68-1.82Z"/><path class="cls-5" d="m218.06,32.69c-2.21,1.18-4.98,1.78-8.3,1.78-3.52,0-6.38-.98-8.59-2.93-2.37-2.08-3.55-4.98-3.55-8.69,0-3.52,1.16-6.42,3.48-8.71,2.32-2.29,5.26-3.43,8.81-3.43,1.15,0,2.21.08,3.17.24V0h4.99v32.69Zm-4.99-2.79v-14.69c-.93-.26-1.92-.39-2.98-.39-2.14,0-3.93.71-5.35,2.12-1.42,1.41-2.14,3.29-2.14,5.63s.68,4.18,2.04,5.61c1.36,1.43,3.24,2.14,5.64,2.14,1.06,0,1.98-.14,2.78-.43Z"/><path class="cls-5" d="m244.17,11.28l-8.74,24c-1.47,4-3.17,6.77-5.09,8.3-1.47,1.18-3.36,1.78-5.66,1.78-1.82,0-3.47-.34-4.94-1.01l1.25-3.84c1.09.54,2.26.82,3.5.82,2.78,0,4.94-2.45,6.48-7.34l-10.37-22.7h5.33l7.42,16.95h.1s5.72-16.95,5.72-16.95h5Z"/><path class="cls-5" d="m272.44.96l-.96,3.74c-.96-.45-1.92-.67-2.88-.67-1.86,0-2.78,1.12-2.78,3.36v3.89h5.95l-1.39,3.94h-4.56v18.77h-4.99V15.22h-3.17v-3.94h3.17v-3.46c0-2.88.88-4.99,2.64-6.34C264.75.5,266.38,0,268.36,0c1.5,0,2.86.32,4.08.96Z"/><path class="cls-5" d="m284.25,10.7c3.42,0,6.13,1.11,8.11,3.34,1.98,2.22,2.98,5.06,2.98,8.52s-.98,6.29-2.93,8.5c-2.05,2.27-4.77,3.41-8.16,3.41-3.14,0-5.66-.93-7.58-2.78-2.27-2.21-3.41-5.2-3.41-8.98,0-3.39.98-6.21,2.93-8.45,2.05-2.37,4.74-3.55,8.06-3.55Zm-.02,4.03c-1.88,0-3.32.71-4.33,2.14s-1.51,3.34-1.51,5.74.53,4.27,1.6,5.71c1.07,1.44,2.51,2.16,4.33,2.16s3.33-.72,4.35-2.16c1.02-1.44,1.53-3.34,1.53-5.71s-.53-4.31-1.58-5.74c-1.05-1.42-2.52-2.14-4.4-2.14Z"/><path class="cls-5" d="m313.92,11.57l-1.92,4.42c-.74-.42-1.58-.62-2.54-.62-1.47,0-2.99.75-4.56,2.26v16.37h-4.99V11.28h4.18l.62,2.5c2.24-2.05,4.35-3.07,6.34-3.07,1.09,0,2.05.29,2.88.86Z"/></g></g><g id="g19"><path id="path1750" class="cls-5" d="m143.04,82.53h-6.69v15.11h6.31c6.4,0,9.63-3.16,9.63-7.9,0-4.21-3.46-7.22-9.25-7.22m-6.69-20.83v14.06h5.64c3.68,0,7.29-2.71,7.29-7.22,0-4.14-2.49-6.85-7.9-6.85h-5.03Zm6.69,42.71h-14.59v-49.55h15.04c9.48,0,13.83,6.31,13.83,12.18,0,4.58-2.18,8.65-6.31,10.53v.08c5.19,1.13,9.47,5.86,9.47,12.03,0,6.92-4.73,14.74-17.44,14.74"/><path id="path1751" class="cls-5" d="m167.22,68.84h7.82v35.57h-7.82v-35.57Zm8.87-11.05c0,2.63-2.18,4.89-4.96,4.89s-5.03-2.18-5.03-4.89,2.18-4.89,5.03-4.89,4.96,2.11,4.96,4.89"/><path id="path1752" class="cls-5" d="m189.45,86.59c0,7.37,3.53,12.33,9.32,12.33s9.24-5.12,9.24-12.33-3.45-12.32-9.4-12.32-9.17,5.03-9.17,12.32m21.73-13.6c3.16,3.23,4.89,8.04,4.89,13.53s-1.81,10.45-5.04,13.76c-3.08,3.08-7.29,4.89-12.33,4.89s-8.95-1.5-11.87-4.36c-3.46-3.3-5.34-8.35-5.34-14.05s1.88-10.53,5.11-13.84c3.01-3.16,7.22-4.96,12.1-4.96,5.19,0,9.48,1.8,12.49,5.04"/><path id="path1753" class="cls-5" d="m236.94,61.7h-5.79v35.94h5.79c13.76,0,18.87-8.64,18.87-18.34s-6.08-17.6-18.87-17.6m-.38,42.71h-13.31v-49.55h13.61c18.27,0,27.29,10.07,27.29,24.28s-9.7,25.27-27.59,25.27"/><path id="path1754" class="cls-5" d="m289.48,87.8l-5.79.23c-5.34.15-7.67,2.02-7.67,5.34s2.1,5.49,6.16,5.49c3.69,0,6.02-1.66,7.3-2.86v-8.19Zm2.1,16.61l-1.5-3.3c-2.25,2.11-5.56,4.06-10.53,4.06-6.24,0-11.35-4.29-11.35-11.2,0-7.3,5.49-11.36,14.74-11.74l6.62-.22v-1.06c0-4.96-3.16-6.76-7.14-6.76s-7.07,1.43-9.25,2.86l-2.63-5.04c4.59-3.16,8.8-4.06,13.46-4.06,8.13,0,13.47,3.39,13.47,12.64v13.01c0,6.76.15,9.4.67,10.82h-6.54Z"/><path id="path1755" class="cls-5" d="m315.99,105.16c-5.87,0-8.35-3.38-8.35-8.04v-22.18h-6.17v-6.09h6.17v-8.04l7.81-2.4v10.45h11.05l-2.48,6.09h-8.58v19.4c0,2.78,1.13,4.13,3.46,4.13s4.59-1.21,6.02-2.18l2.18,5.12c-3.39,2.48-7.75,3.75-11.13,3.75"/><path id="path1756" class="cls-5" d="m351.05,87.8l-5.79.23c-5.34.15-7.67,2.02-7.67,5.34s2.1,5.49,6.16,5.49c3.69,0,6.02-1.66,7.3-2.86v-8.19Zm2.11,16.61l-1.51-3.3c-2.25,2.11-5.56,4.06-10.52,4.06-6.24,0-11.36-4.29-11.36-11.2,0-7.3,5.5-11.36,14.74-11.74l6.62-.22v-1.06c0-4.96-3.16-6.76-7.14-6.76s-7.07,1.43-9.25,2.86l-2.63-5.04c4.59-3.16,8.8-4.06,13.47-4.06,8.12,0,13.46,3.39,13.46,12.64v13.01c0,6.76.15,9.4.68,10.82h-6.54Z"/><path id="path1757" class="cls-6" d="m370.9,105.39c-2.71,0-4.81-2.18-4.81-5.04s2.11-4.96,4.81-4.96,4.89,2.18,4.89,4.96-2.11,5.04-4.89,5.04"/><path id="path1758" class="cls-6" d="m395.47,74.63c-2.11,0-3.53.23-4.81.61v22.48c1.66.68,2.94,1.06,4.96,1.06,6.78,0,10.83-4.81,10.83-12.33,0-8.12-4.97-11.81-10.98-11.81m.52,30.53c-2.11,0-3.75-.38-5.34-.98v18.05h-7.82v-51.9c3.24-1.12,7.52-2.4,13.09-2.4,11.96,0,18.57,7.07,18.57,18.12,0,11.65-8.35,19.1-18.5,19.1"/><path id="path1759" class="cls-6" d="m431.34,105.16c-5.87,0-8.35-3.38-8.35-8.04v-22.18h-6.17v-6.09h6.17v-8.04l7.82-2.4v10.45h11.05l-2.49,6.09h-8.57v19.4c0,2.78,1.12,4.13,3.45,4.13s4.59-1.21,6.02-2.18l2.18,5.12c-3.39,2.48-7.75,3.75-11.13,3.75"/></g><g class="cls-1"><g id="g1761"><g class="cls-7"><g id="g1760"><path id="path1760" class="cls-3" d="m-49.51,87.92l103.88,103.88,103.88-103.88L54.37-15.96-49.51,87.92Z"/></g></g></g></g><g id="text2" class="cls-10"><g class="cls-10"><path class="cls-5" d="m159.58,163.02h-4.9v-23.52c-.27.67-.89,1.74-1.87,3.22l-7.2,11.28h-2.64l-7.78-11.42c-.4-.58-1.04-1.6-1.92-3.07.1.93.14,2.02.14,3.26v20.26h-4.99v-31.63h4.85l9.14,13.43c.83,1.25,1.48,2.31,1.92,3.18h.05c.51-1.05,1.12-2.13,1.83-3.25l8.53-13.36h4.83v31.63Z"/><path class="cls-5" d="m184.01,163.02h-4.18l-.96-2.11c-1.86,1.73-4.1,2.59-6.72,2.59-2.05,0-3.77-.66-5.16-1.97-1.39-1.31-2.09-3.04-2.09-5.18,0-2.3.82-4.1,2.47-5.38,1.65-1.28,3.96-1.98,6.94-2.11l4.22-.14v-.67c0-2.88-1.52-4.32-4.56-4.32-2.05,0-4.02.61-5.9,1.82l-1.68-3.22c2.46-1.73,5.33-2.59,8.59-2.59,5.73,0,8.59,2.69,8.59,8.06v8.3c0,3.78.14,6.08.43,6.91Zm-5.47-5.38v-5.23l-3.72.14c-3.28.1-4.92,1.23-4.92,3.41,0,1.02.35,1.86,1.04,2.52.69.66,1.67.98,2.92.98,1.83,0,3.4-.61,4.68-1.82Z"/><path class="cls-5" d="m208.87,163.02h-4.99v-13.58c0-3.49-1.18-5.23-3.55-5.23-1.82,0-3.89.91-6.19,2.74v16.08h-4.99v-22.7h4.18l.58,2.54c2.78-2.08,5.47-3.12,8.06-3.12,1.89,0,3.46.62,4.7,1.87,1.47,1.44,2.21,3.52,2.21,6.24v15.17Z"/><path class="cls-5" d="m232.49,163.02h-4.18l-.96-2.11c-1.86,1.73-4.1,2.59-6.72,2.59-2.05,0-3.77-.66-5.16-1.97-1.39-1.31-2.09-3.04-2.09-5.18,0-2.3.82-4.1,2.47-5.38,1.65-1.28,3.96-1.98,6.94-2.11l4.22-.14v-.67c0-2.88-1.52-4.32-4.56-4.32-2.05,0-4.02.61-5.9,1.82l-1.68-3.22c2.46-1.73,5.33-2.59,8.59-2.59,5.73,0,8.59,2.69,8.59,8.06v8.3c0,3.78.14,6.08.43,6.91Zm-5.47-5.38v-5.23l-3.72.14c-3.28.1-4.92,1.23-4.92,3.41,0,1.02.35,1.86,1.04,2.52.69.66,1.67.98,2.92.98,1.83,0,3.4-.61,4.68-1.82Z"/><path class="cls-5" d="m258.26,166.86c0,2.11-.98,3.86-2.93,5.23-2.18,1.54-5.25,2.3-9.22,2.3-3.3,0-5.94-.67-7.92-2.02-1.86-1.25-2.78-2.83-2.78-4.75,0-2.37,1.39-4.19,4.18-5.47-1.02-.58-1.54-1.54-1.54-2.88,0-1.54.93-2.94,2.78-4.22-1.18-.64-2.12-1.59-2.81-2.86-.69-1.26-1.03-2.63-1.03-4.1,0-2.3.82-4.28,2.47-5.93,1.65-1.65,3.83-2.47,6.55-2.47,1.73,0,3.15.3,4.27.91.19.13.38.11.58-.05,1.28-1.22,3.02-1.82,5.23-1.82.51,0,1.06.03,1.63.1l-1.15,3.89c-1.41-.32-2.48-.32-3.22,0,1.54,1.6,2.3,3.54,2.3,5.81,0,2.43-.88,4.41-2.64,5.93-1.76,1.52-3.95,2.28-6.58,2.28-1.18,0-2.18-.14-2.98-.43-.54.7-.82,1.41-.82,2.11,0,.83,1.36,1.44,4.08,1.82,3.84.54,6.34,1.02,7.49,1.44,2.69,1.06,4.03,2.78,4.03,5.18Zm-5.47.53c0-.96-.72-1.71-2.16-2.26-.9-.35-2.38-.67-4.46-.94-2.08-.27-3.39-.5-3.94-.7-1.54,1.06-2.3,2.17-2.3,3.36,0,1.09.61,2,1.82,2.74,1.22.74,2.82,1.1,4.8,1.1,1.86,0,3.36-.3,4.51-.89,1.15-.59,1.73-1.4,1.73-2.42Zm-6.72-23.76c-1.25,0-2.26.4-3.05,1.2-.79.8-1.18,1.89-1.18,3.26s.4,2.46,1.2,3.36c.8.9,1.86,1.34,3.17,1.34s2.38-.4,3.19-1.2,1.22-1.92,1.22-3.36c0-1.28-.42-2.37-1.25-3.26-.83-.9-1.94-1.34-3.31-1.34Z"/><path class="cls-5" d="m279.29,152.84h-14.59c.03,1.89.67,3.45,1.92,4.68,1.25,1.23,2.88,1.85,4.9,1.85s3.82-.53,5.71-1.58l1.3,3.26c-2.24,1.63-4.88,2.45-7.92,2.45-3.62,0-6.42-1.22-8.4-3.65-1.76-2.21-2.64-4.99-2.64-8.35s.9-6.12,2.71-8.38c1.81-2.26,4.22-3.38,7.22-3.38s5.39,1.07,7.15,3.22c1.76,2.14,2.64,4.98,2.64,8.5v1.39Zm-5.18-3.7c-.03-1.47-.43-2.72-1.19-3.74-.86-1.18-2.02-1.78-3.49-1.78s-2.54.54-3.41,1.63c-.88,1.09-1.31,2.38-1.31,3.89h9.41Z"/><path class="cls-5" d="m317.78,163.02h-5.04v-14.21c0-1.47-.18-2.56-.53-3.26-.51-.96-1.46-1.44-2.83-1.44-1.92,0-3.94.9-6.05,2.69v16.22h-4.99v-14.11c0-3.2-1.14-4.8-3.41-4.8-1.89,0-3.9.91-6.05,2.74v16.18h-4.99v-22.7h4.18l.58,2.54c2.66-2.08,5.28-3.12,7.87-3.12,2.85,0,4.78,1.18,5.81,3.55,2.72-2.37,5.44-3.55,8.16-3.55,4.86,0,7.3,2.54,7.3,7.63v15.65Z"/><path class="cls-5" d="m341.98,152.84h-14.59c.03,1.89.67,3.45,1.92,4.68,1.25,1.23,2.88,1.85,4.9,1.85s3.82-.53,5.71-1.58l1.3,3.26c-2.24,1.63-4.88,2.45-7.92,2.45-3.62,0-6.42-1.22-8.4-3.65-1.76-2.21-2.64-4.99-2.64-8.35s.9-6.12,2.71-8.38c1.81-2.26,4.22-3.38,7.22-3.38s5.39,1.07,7.15,3.22c1.76,2.14,2.64,4.98,2.64,8.5v1.39Zm-5.18-3.7c-.03-1.47-.43-2.72-1.19-3.74-.86-1.18-2.02-1.78-3.49-1.78s-2.54.54-3.41,1.63c-.88,1.09-1.31,2.38-1.31,3.89h9.41Z"/><path class="cls-5" d="m366.31,163.02h-4.99v-13.58c0-3.49-1.18-5.23-3.55-5.23-1.82,0-3.89.91-6.19,2.74v16.08h-4.99v-22.7h4.18l.58,2.54c2.78-2.08,5.47-3.12,8.06-3.12,1.89,0,3.46.62,4.7,1.87,1.47,1.44,2.21,3.52,2.21,6.24v15.17Z"/><path class="cls-5" d="m386.18,161.1c-2.21,1.6-4.58,2.4-7.1,2.4-3.55,0-5.33-1.71-5.33-5.14v-14.16h-3.94v-3.89h3.94v-5.14l4.99-1.54v6.67h7.06l-1.58,3.89h-5.47v12.38c0,1.76.74,2.64,2.21,2.64,1.25,0,2.53-.46,3.84-1.39l1.39,3.26Z"/><path class="cls-5" d="m406.92,137.48c0,1.95-.85,3.82-2.54,5.62-.51.51-2.11,1.81-4.8,3.89-1.73,1.34-2.59,2.45-2.59,3.31,0,.64.34,1.41,1.01,2.3l-3.94,1.97c-1.31-1.34-1.97-2.85-1.97-4.51,0-1.54.82-3.06,2.45-4.56,1.54-1.22,3.05-2.42,4.56-3.6,1.63-1.41,2.45-2.77,2.45-4.08,0-2.11-1.18-3.17-3.55-3.17-2.11,0-4.19.94-6.24,2.83l-2.3-3.12c2.75-2.56,5.86-3.84,9.31-3.84,2.59,0,4.6.63,6.02,1.9,1.42,1.26,2.14,2.95,2.14,5.06Zm-7.54,22.94c0,.9-.3,1.66-.89,2.28-.59.62-1.32.94-2.18.94s-1.59-.31-2.18-.94c-.59-.62-.89-1.38-.89-2.28s.29-1.65.89-2.26c.59-.61,1.32-.91,2.18-.91s1.59.3,2.18.91c.59.61.89,1.36.89,2.26Z"/></g></g><g id="text19" class="cls-10"><g class="cls-10"><path class="cls-5" d="m150.57,33.98h-5.86c-3.33-5.47-5.23-8.58-5.71-9.31-1.41-2.18-2.38-3.34-2.93-3.5h-2.93v12.82h-5.04V2.35h7.87c3.74,0,6.56.86,8.45,2.59,1.66,1.54,2.5,3.62,2.5,6.24,0,2.02-.59,3.79-1.78,5.33-1.06,1.34-2.45,2.35-4.18,3.02v.05c.58.32,1.71,1.79,3.41,4.42.77,1.18,2.83,4.51,6.19,9.98Zm-8.78-22.27c0-1.47-.45-2.64-1.34-3.5-.99-.99-2.46-1.49-4.42-1.49h-2.88v10.51h2.98c1.6,0,2.94-.54,4.03-1.61,1.09-1.07,1.63-2.38,1.63-3.91Z"/><path class="cls-5" d="m170.88,23.81h-14.59c.03,1.89.67,3.45,1.92,4.68,1.25,1.23,2.88,1.85,4.9,1.85s3.82-.53,5.71-1.58l1.3,3.26c-2.24,1.63-4.88,2.45-7.92,2.45-3.62,0-6.42-1.22-8.4-3.65-1.76-2.21-2.64-4.99-2.64-8.35s.9-6.12,2.71-8.38c1.81-2.26,4.22-3.38,7.22-3.38s5.39,1.07,7.15,3.22c1.76,2.14,2.64,4.98,2.64,8.5v1.39Zm-5.18-3.7c-.03-1.47-.43-2.72-1.19-3.74-.86-1.18-2.02-1.78-3.49-1.78s-2.54.54-3.41,1.63c-.88,1.09-1.31,2.38-1.31,3.89h9.41Z"/><path class="cls-5" d="m193.53,33.98h-4.18l-.96-2.11c-1.86,1.73-4.1,2.59-6.72,2.59-2.05,0-3.77-.66-5.16-1.97-1.39-1.31-2.09-3.04-2.09-5.18,0-2.3.82-4.1,2.47-5.38,1.65-1.28,3.96-1.98,6.94-2.11l4.22-.14v-.67c0-2.88-1.52-4.32-4.56-4.32-2.05,0-4.02.61-5.9,1.82l-1.68-3.22c2.46-1.73,5.33-2.59,8.59-2.59,5.73,0,8.59,2.69,8.59,8.06v8.3c0,3.78.14,6.08.43,6.91Zm-5.47-5.38v-5.23l-3.72.14c-3.28.1-4.92,1.23-4.92,3.41,0,1.02.35,1.86,1.04,2.52.69.66,1.67.98,2.92.98,1.83,0,3.4-.61,4.68-1.82Z"/><path class="cls-5" d="m218.06,32.69c-2.21,1.18-4.98,1.78-8.3,1.78-3.52,0-6.38-.98-8.59-2.93-2.37-2.08-3.55-4.98-3.55-8.69,0-3.52,1.16-6.42,3.48-8.71,2.32-2.29,5.26-3.43,8.81-3.43,1.15,0,2.21.08,3.17.24V0h4.99v32.69Zm-4.99-2.79v-14.69c-.93-.26-1.92-.39-2.98-.39-2.14,0-3.93.71-5.35,2.12-1.42,1.41-2.14,3.29-2.14,5.63s.68,4.18,2.04,5.61c1.36,1.43,3.24,2.14,5.64,2.14,1.06,0,1.98-.14,2.78-.43Z"/><path class="cls-5" d="m244.17,11.28l-8.74,24c-1.47,4-3.17,6.77-5.09,8.3-1.47,1.18-3.36,1.78-5.66,1.78-1.82,0-3.47-.34-4.94-1.01l1.25-3.84c1.09.54,2.26.82,3.5.82,2.78,0,4.94-2.45,6.48-7.34l-10.37-22.7h5.33l7.42,16.95h.1s5.72-16.95,5.72-16.95h5Z"/><path class="cls-5" d="m272.44.96l-.96,3.74c-.96-.45-1.92-.67-2.88-.67-1.86,0-2.78,1.12-2.78,3.36v3.89h5.95l-1.39,3.94h-4.56v18.77h-4.99V15.22h-3.17v-3.94h3.17v-3.46c0-2.88.88-4.99,2.64-6.34C264.75.5,266.38,0,268.36,0c1.5,0,2.86.32,4.08.96Z"/><path class="cls-5" d="m284.25,10.7c3.42,0,6.13,1.11,8.11,3.34,1.98,2.22,2.98,5.06,2.98,8.52s-.98,6.29-2.93,8.5c-2.05,2.27-4.77,3.41-8.16,3.41-3.14,0-5.66-.93-7.58-2.78-2.27-2.21-3.41-5.2-3.41-8.98,0-3.39.98-6.21,2.93-8.45,2.05-2.37,4.74-3.55,8.06-3.55Zm-.02,4.03c-1.88,0-3.32.71-4.33,2.14s-1.51,3.34-1.51,5.74.53,4.27,1.6,5.71c1.07,1.44,2.51,2.16,4.33,2.16s3.33-.72,4.35-2.16c1.02-1.44,1.53-3.34,1.53-5.71s-.53-4.31-1.58-5.74c-1.05-1.42-2.52-2.14-4.4-2.14Z"/><path class="cls-5" d="m313.92,11.57l-1.92,4.42c-.74-.42-1.58-.62-2.54-.62-1.47,0-2.99.75-4.56,2.26v16.37h-4.99V11.28h4.18l.62,2.5c2.24-2.05,4.35-3.07,6.34-3.07,1.09,0,2.05.29,2.88.86Z"/></g></g><g id="g28"><path id="path19" class="cls-5" d="m143.04,82.53h-6.69v15.11h6.31c6.4,0,9.63-3.16,9.63-7.9,0-4.21-3.46-7.22-9.25-7.22m-6.69-20.83v14.06h5.64c3.68,0,7.29-2.71,7.29-7.22,0-4.14-2.49-6.85-7.9-6.85h-5.03Zm6.69,42.71h-14.59v-49.55h15.04c9.48,0,13.83,6.31,13.83,12.18,0,4.58-2.18,8.65-6.31,10.53v.08c5.19,1.13,9.47,5.86,9.47,12.03,0,6.92-4.73,14.74-17.44,14.74"/><path id="path20" class="cls-5" d="m167.22,68.84h7.82v35.57h-7.82v-35.57Zm8.87-11.05c0,2.63-2.18,4.89-4.96,4.89s-5.03-2.18-5.03-4.89,2.18-4.89,5.03-4.89,4.96,2.11,4.96,4.89"/><path id="path21" class="cls-5" d="m189.45,86.59c0,7.37,3.53,12.33,9.32,12.33s9.24-5.12,9.24-12.33-3.45-12.32-9.4-12.32-9.17,5.03-9.17,12.32m21.73-13.6c3.16,3.23,4.89,8.04,4.89,13.53s-1.81,10.45-5.04,13.76c-3.08,3.08-7.29,4.89-12.33,4.89s-8.95-1.5-11.87-4.36c-3.46-3.3-5.34-8.35-5.34-14.05s1.88-10.53,5.11-13.84c3.01-3.16,7.22-4.96,12.1-4.96,5.19,0,9.48,1.8,12.49,5.04"/><path id="path22" class="cls-5" d="m236.94,61.7h-5.79v35.94h5.79c13.76,0,18.87-8.64,18.87-18.34s-6.08-17.6-18.87-17.6m-.38,42.71h-13.31v-49.55h13.61c18.27,0,27.29,10.07,27.29,24.28s-9.7,25.27-27.59,25.27"/><path id="path23" class="cls-5" d="m289.48,87.8l-5.79.23c-5.34.15-7.67,2.02-7.67,5.34s2.1,5.49,6.16,5.49c3.69,0,6.02-1.66,7.3-2.86v-8.19Zm2.1,16.61l-1.5-3.3c-2.25,2.11-5.56,4.06-10.53,4.06-6.24,0-11.35-4.29-11.35-11.2,0-7.3,5.49-11.36,14.74-11.74l6.62-.22v-1.06c0-4.96-3.16-6.76-7.14-6.76s-7.07,1.43-9.25,2.86l-2.63-5.04c4.59-3.16,8.8-4.06,13.46-4.06,8.13,0,13.47,3.39,13.47,12.64v13.01c0,6.76.15,9.4.67,10.82h-6.54Z"/><path id="path24" class="cls-5" d="m315.99,105.16c-5.87,0-8.35-3.38-8.35-8.04v-22.18h-6.17v-6.09h6.17v-8.04l7.81-2.4v10.45h11.05l-2.48,6.09h-8.58v19.4c0,2.78,1.13,4.13,3.46,4.13s4.59-1.21,6.02-2.18l2.18,5.12c-3.39,2.48-7.75,3.75-11.13,3.75"/><path id="path25" class="cls-5" d="m351.05,87.8l-5.79.23c-5.34.15-7.67,2.02-7.67,5.34s2.1,5.49,6.16,5.49c3.69,0,6.02-1.66,7.3-2.86v-8.19Zm2.11,16.61l-1.51-3.3c-2.25,2.11-5.56,4.06-10.52,4.06-6.24,0-11.36-4.29-11.36-11.2,0-7.3,5.5-11.36,14.74-11.74l6.62-.22v-1.06c0-4.96-3.16-6.76-7.14-6.76s-7.07,1.43-9.25,2.86l-2.63-5.04c4.59-3.16,8.8-4.06,13.47-4.06,8.12,0,13.46,3.39,13.46,12.64v13.01c0,6.76.15,9.4.68,10.82h-6.54Z"/><path id="path26" class="cls-6" d="m370.9,105.39c-2.71,0-4.81-2.18-4.81-5.04s2.11-4.96,4.81-4.96,4.89,2.18,4.89,4.96-2.11,5.04-4.89,5.04"/><path id="path27" class="cls-6" d="m395.47,74.63c-2.11,0-3.53.23-4.81.61v22.48c1.66.68,2.94,1.06,4.96,1.06,6.78,0,10.83-4.81,10.83-12.33,0-8.12-4.97-11.81-10.98-11.81m.52,30.53c-2.11,0-3.75-.38-5.34-.98v18.05h-7.82v-51.9c3.24-1.12,7.52-2.4,13.09-2.4,11.96,0,18.57,7.07,18.57,18.12,0,11.65-8.35,19.1-18.5,19.1"/><path id="path28" class="cls-6" d="m431.34,105.16c-5.87,0-8.35-3.38-8.35-8.04v-22.18h-6.17v-6.09h6.17v-8.04l7.82-2.4v10.45h11.05l-2.49,6.09h-8.57v19.4c0,2.78,1.12,4.13,3.45,4.13s4.59-1.21,6.02-2.18l2.18,5.12c-3.39,2.48-7.75,3.75-11.13,3.75"/></g><g class="cls-9"><g id="g30"><g class="cls-8"><g id="g29"><path id="path29" class="cls-4" d="m-49.51,87.92l103.88,103.88,103.88-103.88L54.37-15.96-49.51,87.92Z"/></g></g></g></g><g id="text30" class="cls-10"><g class="cls-10"><path class="cls-5" d="m159.58,163.02h-4.9v-23.52c-.27.67-.89,1.74-1.87,3.22l-7.2,11.28h-2.64l-7.78-11.42c-.4-.58-1.04-1.6-1.92-3.07.1.93.14,2.02.14,3.26v20.26h-4.99v-31.63h4.85l9.14,13.43c.83,1.25,1.48,2.31,1.92,3.18h.05c.51-1.05,1.12-2.13,1.83-3.25l8.53-13.36h4.83v31.63Z"/><path class="cls-5" d="m184.01,163.02h-4.18l-.96-2.11c-1.86,1.73-4.1,2.59-6.72,2.59-2.05,0-3.77-.66-5.16-1.97-1.39-1.31-2.09-3.04-2.09-5.18,0-2.3.82-4.1,2.47-5.38,1.65-1.28,3.96-1.98,6.94-2.11l4.22-.14v-.67c0-2.88-1.52-4.32-4.56-4.32-2.05,0-4.02.61-5.9,1.82l-1.68-3.22c2.46-1.73,5.33-2.59,8.59-2.59,5.73,0,8.59,2.69,8.59,8.06v8.3c0,3.78.14,6.08.43,6.91Zm-5.47-5.38v-5.23l-3.72.14c-3.28.1-4.92,1.23-4.92,3.41,0,1.02.35,1.86,1.04,2.52.69.66,1.67.98,2.92.98,1.83,0,3.4-.61,4.68-1.82Z"/><path class="cls-5" d="m208.87,163.02h-4.99v-13.58c0-3.49-1.18-5.23-3.55-5.23-1.82,0-3.89.91-6.19,2.74v16.08h-4.99v-22.7h4.18l.58,2.54c2.78-2.08,5.47-3.12,8.06-3.12,1.89,0,3.46.62,4.7,1.87,1.47,1.44,2.21,3.52,2.21,6.24v15.17Z"/><path class="cls-5" d="m232.49,163.02h-4.18l-.96-2.11c-1.86,1.73-4.1,2.59-6.72,2.59-2.05,0-3.77-.66-5.16-1.97-1.39-1.31-2.09-3.04-2.09-5.18,0-2.3.82-4.1,2.47-5.38,1.65-1.28,3.96-1.98,6.94-2.11l4.22-.14v-.67c0-2.88-1.52-4.32-4.56-4.32-2.05,0-4.02.61-5.9,1.82l-1.68-3.22c2.46-1.73,5.33-2.59,8.59-2.59,5.73,0,8.59,2.69,8.59,8.06v8.3c0,3.78.14,6.08.43,6.91Zm-5.47-5.38v-5.23l-3.72.14c-3.28.1-4.92,1.23-4.92,3.41,0,1.02.35,1.86,1.04,2.52.69.66,1.67.98,2.92.98,1.83,0,3.4-.61,4.68-1.82Z"/><path class="cls-5" d="m258.26,166.86c0,2.11-.98,3.86-2.93,5.23-2.18,1.54-5.25,2.3-9.22,2.3-3.3,0-5.94-.67-7.92-2.02-1.86-1.25-2.78-2.83-2.78-4.75,0-2.37,1.39-4.19,4.18-5.47-1.02-.58-1.54-1.54-1.54-2.88,0-1.54.93-2.94,2.78-4.22-1.18-.64-2.12-1.59-2.81-2.86-.69-1.26-1.03-2.63-1.03-4.1,0-2.3.82-4.28,2.47-5.93,1.65-1.65,3.83-2.47,6.55-2.47,1.73,0,3.15.3,4.27.91.19.13.38.11.58-.05,1.28-1.22,3.02-1.82,5.23-1.82.51,0,1.06.03,1.63.1l-1.15,3.89c-1.41-.32-2.48-.32-3.22,0,1.54,1.6,2.3,3.54,2.3,5.81,0,2.43-.88,4.41-2.64,5.93-1.76,1.52-3.95,2.28-6.58,2.28-1.18,0-2.18-.14-2.98-.43-.54.7-.82,1.41-.82,2.11,0,.83,1.36,1.44,4.08,1.82,3.84.54,6.34,1.02,7.49,1.44,2.69,1.06,4.03,2.78,4.03,5.18Zm-5.47.53c0-.96-.72-1.71-2.16-2.26-.9-.35-2.38-.67-4.46-.94-2.08-.27-3.39-.5-3.94-.7-1.54,1.06-2.3,2.17-2.3,3.36,0,1.09.61,2,1.82,2.74,1.22.74,2.82,1.1,4.8,1.1,1.86,0,3.36-.3,4.51-.89,1.15-.59,1.73-1.4,1.73-2.42Zm-6.72-23.76c-1.25,0-2.26.4-3.05,1.2-.79.8-1.18,1.89-1.18,3.26s.4,2.46,1.2,3.36c.8.9,1.86,1.34,3.17,1.34s2.38-.4,3.19-1.2,1.22-1.92,1.22-3.36c0-1.28-.42-2.37-1.25-3.26-.83-.9-1.94-1.34-3.31-1.34Z"/><path class="cls-5" d="m279.29,152.84h-14.59c.03,1.89.67,3.45,1.92,4.68,1.25,1.23,2.88,1.85,4.9,1.85s3.82-.53,5.71-1.58l1.3,3.26c-2.24,1.63-4.88,2.45-7.92,2.45-3.62,0-6.42-1.22-8.4-3.65-1.76-2.21-2.64-4.99-2.64-8.35s.9-6.12,2.71-8.38c1.81-2.26,4.22-3.38,7.22-3.38s5.39,1.07,7.15,3.22c1.76,2.14,2.64,4.98,2.64,8.5v1.39Zm-5.18-3.7c-.03-1.47-.43-2.72-1.19-3.74-.86-1.18-2.02-1.78-3.49-1.78s-2.54.54-3.41,1.63c-.88,1.09-1.31,2.38-1.31,3.89h9.41Z"/><path class="cls-5" d="m317.78,163.02h-5.04v-14.21c0-1.47-.18-2.56-.53-3.26-.51-.96-1.46-1.44-2.83-1.44-1.92,0-3.94.9-6.05,2.69v16.22h-4.99v-14.11c0-3.2-1.14-4.8-3.41-4.8-1.89,0-3.9.91-6.05,2.74v16.18h-4.99v-22.7h4.18l.58,2.54c2.66-2.08,5.28-3.12,7.87-3.12,2.85,0,4.78,1.18,5.81,3.55,2.72-2.37,5.44-3.55,8.16-3.55,4.86,0,7.3,2.54,7.3,7.63v15.65Z"/><path class="cls-5" d="m341.98,152.84h-14.59c.03,1.89.67,3.45,1.92,4.68,1.25,1.23,2.88,1.85,4.9,1.85s3.82-.53,5.71-1.58l1.3,3.26c-2.24,1.63-4.88,2.45-7.92,2.45-3.62,0-6.42-1.22-8.4-3.65-1.76-2.21-2.64-4.99-2.64-8.35s.9-6.12,2.71-8.38c1.81-2.26,4.22-3.38,7.22-3.38s5.39,1.07,7.15,3.22c1.76,2.14,2.64,4.98,2.64,8.5v1.39Zm-5.18-3.7c-.03-1.47-.43-2.72-1.19-3.74-.86-1.18-2.02-1.78-3.49-1.78s-2.54.54-3.41,1.63c-.88,1.09-1.31,2.38-1.31,3.89h9.41Z"/><path class="cls-5" d="m366.31,163.02h-4.99v-13.58c0-3.49-1.18-5.23-3.55-5.23-1.82,0-3.89.91-6.19,2.74v16.08h-4.99v-22.7h4.18l.58,2.54c2.78-2.08,5.47-3.12,8.06-3.12,1.89,0,3.46.62,4.7,1.87,1.47,1.44,2.21,3.52,2.21,6.24v15.17Z"/><path class="cls-5" d="m386.18,161.1c-2.21,1.6-4.58,2.4-7.1,2.4-3.55,0-5.33-1.71-5.33-5.14v-14.16h-3.94v-3.89h3.94v-5.14l4.99-1.54v6.67h7.06l-1.58,3.89h-5.47v12.38c0,1.76.74,2.64,2.21,2.64,1.25,0,2.53-.46,3.84-1.39l1.39,3.26Z"/><path class="cls-5" d="m406.92,137.48c0,1.95-.85,3.82-2.54,5.62-.51.51-2.11,1.81-4.8,3.89-1.73,1.34-2.59,2.45-2.59,3.31,0,.64.34,1.41,1.01,2.3l-3.94,1.97c-1.31-1.34-1.97-2.85-1.97-4.51,0-1.54.82-3.06,2.45-4.56,1.54-1.22,3.05-2.42,4.56-3.6,1.63-1.41,2.45-2.77,2.45-4.08,0-2.11-1.18-3.17-3.55-3.17-2.11,0-4.19.94-6.24,2.83l-2.3-3.12c2.75-2.56,5.86-3.84,9.31-3.84,2.59,0,4.6.63,6.02,1.9,1.42,1.26,2.14,2.95,2.14,5.06Zm-7.54,22.94c0,.9-.3,1.66-.89,2.28-.59.62-1.32.94-2.18.94s-1.59-.31-2.18-.94c-.59-.62-.89-1.38-.89-2.28s.29-1.65.89-2.26c.59-.61,1.32-.91,2.18-.91s1.59.3,2.18.91c.59.61.89,1.36.89,2.26Z"/></g></g></g></svg>